<svg width="32" height="32" fill="none" xmlns="http://www.w3.org/2000/svg"><path d="M32 16c0 8.837-7.163 16-16 16S0 24.837 0 16 7.163 0 16 0s16 7.163 16 16Z" fill="#CED8BC"/><path fill-rule="evenodd" clip-rule="evenodd" d="M16 31c8.284 0 15-6.716 15-15 0-8.284-6.716-15-15-15C7.716 1 1 7.716 1 16c0 8.284 6.716 15 15 15Zm0 1c8.837 0 16-7.163 16-16S24.837 0 16 0 0 7.163 0 16s7.163 16 16 16Z" fill="#283510"/><path d="M5.723 16.832a.365.365 0 0 0-.07-.219.617.617 0 0 0-.262-.18 2.555 2.555 0 0 0-.543-.156 4.227 4.227 0 0 1-.598-.175 2.075 2.075 0 0 1-.477-.262 1.137 1.137 0 0 1-.312-.36 1 1 0 0 1-.113-.48c0-.177.037-.344.113-.5a1.29 1.29 0 0 1 .332-.414c.146-.123.323-.218.531-.285.211-.07.448-.106.711-.106.367 0 .682.059.945.176.266.117.47.279.61.484.143.204.215.435.215.696H5.68a.602.602 0 0 0-.07-.293.465.465 0 0 0-.212-.207.753.753 0 0 0-.367-.078.735.735 0 0 0-.324.066.497.497 0 0 0-.21.172.414.414 0 0 0-.032.41c.028.05.074.095.137.137.062.042.143.08.242.117.101.034.226.065.375.094.304.062.577.144.816.246.24.099.43.234.57.406.141.17.211.392.211.668 0 .188-.041.36-.125.516a1.244 1.244 0 0 1-.359.41 1.82 1.82 0 0 1-.562.27 2.63 2.63 0 0 1-.73.093c-.394 0-.728-.07-1-.21a1.586 1.586 0 0 1-.618-.536 1.245 1.245 0 0 1-.207-.672H4.28a.623.623 0 0 0 .117.371.64.64 0 0 0 .286.203c.117.042.243.063.378.063.146 0 .267-.02.364-.059a.517.517 0 0 0 .219-.164.396.396 0 0 0 .078-.242ZM9.492 18.078c-.328 0-.622-.052-.883-.156a1.939 1.939 0 0 1-.664-.442 1.962 1.962 0 0 1-.414-.652 2.196 2.196 0 0 1-.144-.797v-.156c0-.32.045-.613.136-.879.092-.266.222-.496.391-.691.172-.196.38-.345.625-.45.245-.106.52-.16.828-.16.3 0 .565.05.797.149.232.099.426.24.582.422.159.182.279.4.36.656.08.252.12.534.12.844v.468H7.868v-.75h2.254v-.086a.976.976 0 0 0-.086-.418.664.664 0 0 0-.25-.296.774.774 0 0 0-.43-.11.721.721 0 0 0-.382.098.755.755 0 0 0-.262.273 1.488 1.488 0 0 0-.149.414 2.633 2.633 0 0 0-.046.516v.156c0 .17.023.326.07.469.05.143.118.267.207.371.091.104.2.185.328.242.13.058.277.086.441.086.204 0 .392-.039.567-.117.177-.08.33-.202.457-.363l.547.593c-.089.128-.21.25-.363.368a1.941 1.941 0 0 1-.547.289c-.214.073-.457.11-.73.11ZM14.367 16.988v-3.215h1.125V18h-1.058l-.067-1.012Zm.125-.867.332-.008c0 .282-.032.543-.097.785-.066.24-.163.448-.293.625a1.37 1.37 0 0 1-.493.41 1.582 1.582 0 0 1-.699.145c-.206 0-.396-.029-.57-.086a1.161 1.161 0 0 1-.445-.277 1.343 1.343 0 0 1-.29-.488 2.271 2.271 0 0 1-.101-.723v-2.73h1.125v2.738c0 .125.014.23.043.316a.567.567 0 0 0 .129.211.47.47 0 0 0 .191.117.839.839 0 0 0 .25.035c.232 0 .414-.046.547-.14a.742.742 0 0 0 .285-.383 1.65 1.65 0 0 0 .086-.547ZM16.406 17.457a.56.56 0 0 1 .172-.418.645.645 0 0 1 .465-.168c.193 0 .346.056.46.168a.554.554 0 0 1 .177.418.555.555 0 0 1-.176.418.631.631 0 0 1-.461.168.645.645 0 0 1-.465-.168.56.56 0 0 1-.172-.418ZM19.797 14.586v5.039h-1.125v-5.852h1.043l.082.813Zm2.676 1.254v.082c0 .307-.037.592-.11.855-.07.263-.174.492-.312.688-.138.193-.31.344-.516.453a1.49 1.49 0 0 1-.703.16c-.258 0-.482-.052-.672-.156a1.4 1.4 0 0 1-.48-.438c-.128-.19-.23-.41-.309-.66a5.217 5.217 0 0 1-.18-.805v-.214c.042-.308.102-.589.18-.844.078-.258.181-.48.309-.668.13-.19.289-.337.476-.441.19-.105.413-.157.668-.157.268 0 .504.051.707.153.206.101.378.247.516.437.14.19.246.417.316.68.073.263.11.555.11.875Zm-1.13.082v-.082c0-.18-.015-.345-.046-.496a1.285 1.285 0 0 0-.14-.403.683.683 0 0 0-.622-.363.954.954 0 0 0-.394.074.659.659 0 0 0-.262.215.994.994 0 0 0-.152.336c-.034.13-.055.277-.063.442v.543c.013.192.05.365.11.519.06.151.152.27.277.36a.834.834 0 0 0 .492.132.681.681 0 0 0 .375-.097.75.75 0 0 0 .246-.278c.065-.117.11-.252.137-.406.028-.154.043-.319.043-.496ZM25.457 16.832a.365.365 0 0 0-.07-.219.617.617 0 0 0-.262-.18 2.555 2.555 0 0 0-.543-.156 4.228 4.228 0 0 1-.598-.175 2.075 2.075 0 0 1-.476-.262 1.137 1.137 0 0 1-.313-.36 1 1 0 0 1-.113-.48c0-.177.038-.344.113-.5a1.29 1.29 0 0 1 .332-.414c.146-.123.323-.218.532-.285.21-.07.447-.106.71-.106.368 0 .683.059.946.176.265.117.469.279.61.484.142.204.214.435.214.696h-1.125a.603.603 0 0 0-.07-.293.465.465 0 0 0-.211-.207.753.753 0 0 0-.367-.078.735.735 0 0 0-.325.066.496.496 0 0 0-.21.172.413.413 0 0 0-.07.234c0 .065.012.124.038.176.029.05.074.095.137.137.062.042.143.08.242.117.102.034.227.065.375.094.305.062.577.144.817.246.24.099.43.234.57.406.14.17.21.392.21.668 0 .188-.04.36-.124.516a1.244 1.244 0 0 1-.36.41 1.82 1.82 0 0 1-.562.27c-.216.062-.46.093-.73.093-.394 0-.727-.07-1-.21a1.586 1.586 0 0 1-.618-.536 1.245 1.245 0 0 1-.207-.672h1.067a.623.623 0 0 0 .117.371.64.64 0 0 0 .285.203c.117.042.244.063.379.063.146 0 .267-.02.363-.059a.517.517 0 0 0 .219-.164.396.396 0 0 0 .078-.242ZM28.469 13.773V18h-1.13v-4.227h1.13Zm-1.2-1.101c0-.164.058-.3.172-.406a.65.65 0 0 1 .461-.16c.19 0 .343.053.457.16a.526.526 0 0 1 .176.406c0 .164-.058.3-.176.406a.644.644 0 0 1-.457.16.649.649 0 0 1-.46-.16.531.531 0 0 1-.172-.406Z" fill="#283510"/></svg>