<svg width="60" height="60" fill="none" xmlns="http://www.w3.org/2000/svg"><g clip-path="url(#a)"><path d="M51.004 8.723A29.452 29.452 0 0 0 29.978 0C13.6 0 .255 13.343.24 29.723c0 5.246 1.373 10.35 3.964 14.868L0 60.001l15.765-4.133a29.75 29.75 0 0 0 14.212 3.618h.015c16.38 0 29.723-13.342 29.738-29.737A29.618 29.618 0 0 0 51 8.723h.004Zm-21.026 45.73a24.649 24.649 0 0 1-12.586-3.45l-.9-.54-9.352 2.453 2.497-9.123-.585-.942a24.6 24.6 0 0 1-3.776-13.143c0-13.598 11.089-24.69 24.716-24.69a24.6 24.6 0 0 1 17.476 7.24 24.589 24.589 0 0 1 7.23 17.476c-.016 13.646-11.104 24.72-24.72 24.72Zm13.556-18.502c-.739-.37-4.388-2.167-5.074-2.422-.682-.244-1.181-.371-1.669.371-.498.739-1.923 2.423-2.351 2.906-.427.5-.87.555-1.612.188-.74-.375-3.136-1.155-5.97-3.694-2.213-1.969-3.694-4.406-4.137-5.145-.427-.742-.041-1.14.33-1.511.327-.33.739-.87 1.11-1.298.375-.427.499-.742.743-1.237.244-.503.127-.93-.056-1.301-.188-.372-1.67-4.035-2.296-5.513-.6-1.459-1.21-1.256-1.668-1.275-.428-.026-.927-.026-1.425-.026a2.734 2.734 0 0 0-1.984.926c-.683.743-2.591 2.539-2.591 6.203 0 3.663 2.662 7.185 3.037 7.683.368.5 5.228 7.995 12.687 11.22a41.313 41.313 0 0 0 4.233 1.568c1.782.57 3.39.484 4.673.3 1.425-.218 4.391-1.8 5.017-3.536.615-1.74.615-3.225.428-3.537-.184-.315-.683-.498-1.425-.87Z" fill="#283510"/></g><defs><clipPath id="a"><path fill="#fff" d="M0 0h60v60H0z"/></clipPath></defs></svg>