<svg width="140" height="43" fill="none" xmlns="http://www.w3.org/2000/svg"><path d="M16.303 15.125c-.128.221-.27.38-.43.475-.159.095-.358.142-.597.142-.27 0-.565-.079-.883-.237a23.674 23.674 0 0 0-1.122-.57 8.92 8.92 0 0 0-1.527-.546c-.573-.174-1.25-.261-2.03-.261a6.02 6.02 0 0 0-1.742.237c-.509.143-.946.356-1.312.641-.35.27-.621.594-.812.974-.19.364-.286.76-.286 1.187 0 .57.175 1.044.525 1.424.35.38.811.713 1.384.998.573.269 1.225.514 1.957.736.732.221 1.48.459 2.244.712a22.71 22.71 0 0 1 2.244.879 8.199 8.199 0 0 1 1.957 1.234 5.402 5.402 0 0 1 1.385 1.757c.35.68.525 1.512.525 2.493 0 1.14-.207 2.193-.62 3.158a7.092 7.092 0 0 1-1.815 2.517c-.796.712-1.79 1.266-2.984 1.662-1.177.396-2.53.594-4.057.594-.844 0-1.663-.08-2.459-.238-.78-.142-1.528-.34-2.244-.593-.7-.27-1.36-.586-1.98-.95A10.695 10.695 0 0 1 0 32.363l1.193-1.947a1.58 1.58 0 0 1 .526-.546c.222-.143.493-.214.811-.214.334 0 .66.11.979.332.334.206.716.436 1.146.689.445.253.978.49 1.599.712.62.206 1.392.309 2.315.309.764 0 1.424-.087 1.981-.261.557-.19 1.019-.443 1.385-.76.366-.317.636-.673.811-1.069.175-.411.263-.846.263-1.305 0-.618-.175-1.124-.525-1.52-.35-.396-.82-.736-1.409-1.021a12.317 12.317 0 0 0-1.98-.76 89.735 89.735 0 0 1-2.244-.712 24.808 24.808 0 0 1-2.268-.879 8.248 8.248 0 0 1-1.981-1.258 6.067 6.067 0 0 1-1.385-1.876c-.35-.744-.525-1.646-.525-2.707 0-.965.191-1.883.573-2.754.398-.87.97-1.638 1.719-2.303.764-.665 1.694-1.187 2.792-1.567 1.114-.396 2.395-.594 3.843-.594 1.64 0 3.127.261 4.464.784 1.337.522 2.458 1.235 3.365 2.137l-1.145 1.852ZM38.574 20.111c0-.855-.127-1.646-.382-2.374a5.294 5.294 0 0 0-1.074-1.924 4.75 4.75 0 0 0-1.79-1.282c-.7-.316-1.512-.475-2.435-.475-1.862 0-3.326.53-4.392 1.591-1.066 1.06-1.742 2.549-2.029 4.464h12.102ZM26.33 23.245c.064 1.377.279 2.572.645 3.585.366.998.85 1.829 1.456 2.494a5.956 5.956 0 0 0 2.196 1.495c.859.317 1.814.475 2.864.475 1.002 0 1.87-.11 2.602-.332.732-.238 1.368-.49 1.91-.76a39.227 39.227 0 0 0 1.384-.76c.381-.237.732-.356 1.05-.356.414 0 .732.158.955.475l1.456 1.876a9.223 9.223 0 0 1-2.053 1.804c-.764.491-1.575.895-2.435 1.211-.86.301-1.742.515-2.65.641-.906.143-1.79.214-2.649.214-1.687 0-3.254-.277-4.702-.831a10.71 10.71 0 0 1-3.748-2.493c-1.05-1.092-1.877-2.446-2.482-4.06-.589-1.615-.883-3.475-.883-5.58 0-1.678.262-3.245.788-4.701.54-1.457 1.304-2.723 2.291-3.8 1.003-1.076 2.212-1.923 3.628-2.54 1.432-.633 3.047-.95 4.846-.95 1.495 0 2.88.246 4.153.736a8.978 8.978 0 0 1 3.294 2.114c.923.934 1.639 2.081 2.148 3.442.525 1.346.788 2.881.788 4.607 0 .791-.088 1.321-.263 1.59-.175.27-.493.404-.954.404H26.329ZM68.494 10.732v24.219h-3.103c-.684 0-1.122-.325-1.313-.974l-.381-2.255c-.51.538-1.05 1.029-1.623 1.472a10.07 10.07 0 0 1-1.79 1.14 9.782 9.782 0 0 1-4.368.997c-1.338 0-2.515-.222-3.534-.665a7.124 7.124 0 0 1-2.577-1.876c-.685-.807-1.202-1.773-1.552-2.897-.35-1.14-.525-2.39-.525-3.751v-15.41h5.132v15.41c0 1.63.374 2.897 1.122 3.799.764.902 1.917 1.353 3.46 1.353a6.71 6.71 0 0 0 3.152-.76c.986-.522 1.91-1.234 2.768-2.136V10.732h5.132ZM73.939 32.007c0-.46.08-.887.239-1.282.175-.412.405-.768.692-1.069.302-.3.652-.538 1.05-.712a3.35 3.35 0 0 1 1.313-.261c.461 0 .89.087 1.289.26.413.175.771.412 1.074.713.302.3.54.657.716 1.069.175.395.263.823.263 1.282 0 .474-.088.91-.263 1.306a3.4 3.4 0 0 1-.716 1.044c-.303.301-.66.53-1.074.689a3.177 3.177 0 0 1-1.29.261c-.46 0-.898-.087-1.312-.261a3.1 3.1 0 0 1-1.05-.689 3.631 3.631 0 0 1-.693-1.044 3.47 3.47 0 0 1-.238-1.306ZM91.14 28.872c.716.919 1.496 1.567 2.34 1.947.859.364 1.806.547 2.84.547 2.005 0 3.565-.729 4.679-2.185 1.129-1.456 1.694-3.625 1.694-6.506 0-1.488-.127-2.754-.382-3.799-.254-1.06-.62-1.923-1.098-2.588-.477-.665-1.058-1.147-1.742-1.448-.684-.3-1.456-.451-2.316-.451-1.304 0-2.434.285-3.389.854-.939.554-1.814 1.354-2.626 2.399v11.23Zm-.262-14.626a12.917 12.917 0 0 1 3.46-2.873c1.306-.728 2.818-1.092 4.536-1.092 1.369 0 2.61.277 3.724.831 1.114.538 2.068 1.33 2.864 2.374.796 1.045 1.408 2.343 1.838 3.895.446 1.535.668 3.3.668 5.294 0 1.789-.246 3.459-.74 5.01-.477 1.536-1.169 2.873-2.076 4.013a9.918 9.918 0 0 1-3.294 2.66c-1.289.632-2.745.949-4.368.949-1.432 0-2.65-.23-3.652-.689a9.48 9.48 0 0 1-2.698-1.9V43h-5.132V10.732h3.104c.7 0 1.145.325 1.336.974l.43 2.54ZM127.491 15.125c-.127.221-.27.38-.429.475a1.148 1.148 0 0 1-.597.142c-.271 0-.565-.079-.883-.237a23.885 23.885 0 0 0-1.122-.57 8.927 8.927 0 0 0-1.528-.546c-.573-.174-1.249-.261-2.029-.261a6.02 6.02 0 0 0-1.742.237 3.762 3.762 0 0 0-1.313.641c-.35.27-.621.594-.811.974-.191.364-.287.76-.287 1.187 0 .57.175 1.044.525 1.424.35.38.812.713 1.385.998.572.269 1.225.514 1.957.736.732.221 1.48.459 2.244.712.763.253 1.511.546 2.243.879a8.205 8.205 0 0 1 1.958 1.234 5.397 5.397 0 0 1 1.384 1.757c.35.68.525 1.512.525 2.493 0 1.14-.207 2.193-.62 3.158a7.104 7.104 0 0 1-1.814 2.517c-.796.712-1.791 1.266-2.984 1.662-1.178.396-2.53.594-4.058.594-.843 0-1.663-.08-2.458-.238-.78-.142-1.528-.34-2.244-.593a13.41 13.41 0 0 1-1.981-.95 10.659 10.659 0 0 1-1.623-1.187l1.193-1.947c.143-.238.318-.42.525-.546.223-.143.493-.214.812-.214.334 0 .66.11.978.332.334.206.716.436 1.146.689.446.253.979.49 1.599.712.621.206 1.393.309 2.316.309.763 0 1.424-.087 1.981-.261.557-.19 1.018-.443 1.384-.76.366-.317.637-.673.812-1.069.175-.411.262-.846.262-1.305 0-.618-.175-1.124-.525-1.52-.35-.396-.819-.736-1.408-1.021a12.315 12.315 0 0 0-1.981-.76 89.974 89.974 0 0 1-2.244-.712 24.806 24.806 0 0 1-2.268-.879 8.251 8.251 0 0 1-1.981-1.258 6.062 6.062 0 0 1-1.384-1.876c-.35-.744-.525-1.646-.525-2.707 0-.965.191-1.883.573-2.754a6.88 6.88 0 0 1 1.718-2.303c.764-.665 1.695-1.187 2.793-1.567 1.114-.396 2.395-.594 3.843-.594 1.639 0 3.127.261 4.463.784 1.337.522 2.459 1.235 3.366 2.137l-1.146 1.852ZM139.141 10.732v24.219h-5.132V10.732h5.132ZM140 3.42c0 .46-.095.894-.286 1.306a3.412 3.412 0 0 1-.74 1.092c-.319.301-.693.546-1.122.736-.414.174-.86.261-1.337.261-.461 0-.899-.087-1.313-.26a3.785 3.785 0 0 1-1.05-.737 4.024 4.024 0 0 1-.74-1.092 3.303 3.303 0 0 1-.263-1.306c0-.475.088-.918.263-1.33.191-.411.438-.767.74-1.068a3.223 3.223 0 0 1 1.05-.736c.414-.19.852-.285 1.313-.285.477 0 .923.095 1.337.285.429.174.803.42 1.122.736.318.3.565.657.74 1.068.191.412.286.855.286 1.33Z" fill="#121212"/></svg>