<svg width="60" height="60" fill="none" xmlns="http://www.w3.org/2000/svg"><path d="M0 15a7.5 7.5 0 0 1 7.5-7.5h45A7.5 7.5 0 0 1 60 15v30a7.5 7.5 0 0 1-7.5 7.5h-45A7.5 7.5 0 0 1 0 45V15Zm7.5-3.75A3.75 3.75 0 0 0 3.75 15v.814L30 31.564l26.25-15.75V15a3.75 3.75 0 0 0-3.75-3.75h-45Zm48.75 8.936L38.595 30.78 56.25 41.644V20.186Zm-.127 25.785-21.15-13.016L30 35.936l-4.973-2.981-21.15 13.013A3.75 3.75 0 0 0 7.5 48.75h45a3.75 3.75 0 0 0 3.623-2.779ZM3.75 41.644 21.405 30.78 3.75 20.186v21.458Z" fill="#283510"/></svg>